name rise30.8019peak61.5557fall86.2505.mot
datacolumns 19
datarows 20
range 6.15498500000000 6.18665100000000
endheader
time	ground_force1_vx	ground_force1_vy	ground_force1_vz	ground_force1_px	ground_force1_py	ground_force1_pz	ground_force2_vx	ground_force2_vy	ground_force2_vz	ground_force2_px	ground_force2_py	ground_force2_pz	ground_torque1_x	ground_torque1_y	ground_torque1_z	ground_torque2_x	ground_torque2_y	ground_torque2_z	
6.15498500000000	-6.65159200000000	42.39857500000000	-9.85945300000000	0.26186200000000	0.00000000000000	0.09396600000000	-53.13999400000000	738.02300100000002	-44.11124200000000	0.01874200000000	0.00000000000000	-0.07163900000000	0.00000000000000	-5.21469800000000	0.00000000000000	0.00000000000000	-7.83368600000000	0.00000000000000	
6.15664600000000	-7.16700600000000	49.54335900000000	-11.05372300000000	0.26592800000000	0.00000000000000	0.09482800000000	-53.98720500000000	735.75278600000001	-43.78394800000000	0.01776500000000	0.00000000000000	-0.07150500000000	0.00000000000000	-5.92966200000000	0.00000000000000	0.00000000000000	-7.87774400000000	0.00000000000000	
6.15831700000000	-7.52372800000000	56.73913800000000	-12.12868000000000	0.26969100000000	0.00000000000000	0.09561100000000	-54.85404900000000	733.40379299999995	-43.44666000000000	0.01678900000000	0.00000000000000	-0.07137000000000	0.00000000000000	-6.59918400000000	0.00000000000000	0.00000000000000	-7.92605100000000	0.00000000000000	
6.15998300000000	-7.70410000000000	63.89033400000000	-13.05892200000000	0.27319100000000	0.00000000000000	0.09632500000000	-55.73945800000000	730.97212200000001	-43.09897800000000	0.01581400000000	0.00000000000000	-0.07123300000000	0.00000000000000	-7.20849000000000	0.00000000000000	0.00000000000000	-7.97850100000000	0.00000000000000	
6.16164400000000	-7.69891300000000	70.92573400000001	-13.82816400000000	0.27646200000000	0.00000000000000	0.09698000000000	-56.64227100000000	728.45379100000002	-42.74050000000000	0.01484200000000	0.00000000000000	-0.07109400000000	0.00000000000000	-7.74729800000000	0.00000000000000	0.00000000000000	-8.03497900000000	0.00000000000000	
6.16331000000000	-7.50713800000000	77.80054000000000	-14.42929300000000	0.27953100000000	0.00000000000000	0.09758400000000	-57.56123700000000	725.84475099999997	-42.37082500000000	0.01387300000000	0.00000000000000	-0.07095200000000	0.00000000000000	-8.21000700000000	0.00000000000000	0.00000000000000	-8.09536000000000	0.00000000000000	
6.16497600000000	-7.13503300000000	84.49590999999999	-14.86366100000000	0.28241900000000	0.00000000000000	0.09814200000000	-58.49501800000000	723.14089999999999	-41.98955700000000	0.01290800000000	0.00000000000000	-0.07080900000000	0.00000000000000	-8.59546800000000	0.00000000000000	0.00000000000000	-8.15950400000000	0.00000000000000	
6.16664400000000	-6.59480000000000	91.01643199999999	-15.13980800000000	0.28514500000000	0.00000000000000	0.09866200000000	-59.44218600000000	720.33809900000006	-41.59630500000000	0.01194800000000	0.00000000000000	-0.07066300000000	0.00000000000000	-8.90642800000000	0.00000000000000	0.00000000000000	-8.22726300000000	0.00000000000000	
6.16831500000000	-5.90299100000000	97.38610199999999	-15.27181100000000	0.28772400000000	0.00000000000000	0.09914600000000	-60.40122700000000	717.43218200000001	-41.19068900000000	0.01099200000000	0.00000000000000	-0.07051600000000	0.00000000000000	-9.14875000000000	0.00000000000000	0.00000000000000	-8.29847700000000	0.00000000000000	
6.16997800000000	-5.07882400000000	103.64339600000000	-15.27746100000000	0.29016900000000	0.00000000000000	0.09959900000000	-61.37054100000000	714.41897600000004	-40.77234000000000	0.01004300000000	0.00000000000000	-0.07036600000000	0.00000000000000	-9.33050300000000	0.00000000000000	0.00000000000000	-8.37297600000000	0.00000000000000	
6.17164900000000	-4.14257700000000	109.83600500000000	-15.17646000000000	0.29249100000000	0.00000000000000	0.10002500000000	-62.34844300000000	711.29431299999999	-40.34090500000000	0.00910000000000	0.00000000000000	-0.07021500000000	0.00000000000000	-9.46103100000000	0.00000000000000	0.00000000000000	-8.45057800000000	0.00000000000000	
6.17331100000000	-3.11415900000000	116.01572299999999	-14.98876500000000	0.29469900000000	0.00000000000000	0.10042500000000	-63.33317000000000	708.05404599999997	-39.89605000000000	0.00816400000000	0.00000000000000	-0.07006200000000	0.00000000000000	-9.55007500000000	0.00000000000000	0.00000000000000	-8.53109000000000	0.00000000000000	
6.17497800000000	-2.01196400000000	122.23386100000000	-14.73319300000000	0.29680100000000	0.00000000000000	0.10080300000000	-64.32287500000000	704.69406600000002	-39.43746100000000	0.00723600000000	0.00000000000000	-0.06990600000000	0.00000000000000	-9.60700600000000	0.00000000000000	0.00000000000000	-8.61430900000000	0.00000000000000	
6.17664400000000	-0.85202700000000	128.53746400000000	-14.42635700000000	0.29880300000000	0.00000000000000	0.10116000000000	-65.31563800000001	701.21031400000004	-38.96484800000000	0.00631500000000	0.00000000000000	-0.06974900000000	0.00000000000000	-9.64022300000000	0.00000000000000	0.00000000000000	-8.70001900000000	0.00000000000000	
6.17831700000000	0.35249100000000	134.96647999999999	-14.08195200000000	0.30071100000000	0.00000000000000	0.10149800000000	-66.30946200000000	697.59880099999998	-38.47795000000000	0.00540400000000	0.00000000000000	-0.06959000000000	0.00000000000000	-9.65672700000000	0.00000000000000	0.00000000000000	-8.78799800000000	0.00000000000000	
6.17998400000000	1.59151500000000	141.55192700000001	-13.71037600000000	0.30253000000000	0.00000000000000	0.10181900000000	-67.30228200000001	693.85562400000003	-37.97653300000000	0.00450100000000	0.00000000000000	-0.06942800000000	0.00000000000000	-9.66186900000000	0.00000000000000	0.00000000000000	-8.87800800000000	0.00000000000000	
6.18164700000000	2.85800100000000	148.31502300000000	-13.31867600000000	0.30426400000000	0.00000000000000	0.10212500000000	-68.29196500000000	689.97697600000004	-37.46039800000000	0.00360700000000	0.00000000000000	-0.06926500000000	0.00000000000000	-9.65927200000000	0.00000000000000	0.00000000000000	-8.96980600000000	0.00000000000000	
6.18331400000000	4.14766000000000	155.26716300000001	-12.91074200000000	0.30591600000000	0.00000000000000	0.10241600000000	-69.27631500000000	685.95917199999997	-36.92937900000000	0.00272300000000	0.00000000000000	-0.06910100000000	0.00000000000000	-9.65089700000000	0.00000000000000	0.00000000000000	-9.06313500000000	0.00000000000000	
6.18498300000000	5.45854300000000	162.41059799999999	-12.48770500000000	0.30749000000000	0.00000000000000	0.10269400000000	-70.25307700000000	681.79865800000005	-36.38335000000000	0.00184900000000	0.00000000000000	-0.06893400000000	0.00000000000000	-9.63721900000000	0.00000000000000	0.00000000000000	-9.15773000000000	0.00000000000000	
6.18665100000000	6.79051200000000	169.73963000000001	-12.04846000000000	0.30898800000000	0.00000000000000	0.10296000000000	-71.21994300000000	677.49203000000000	-35.82222200000000	0.00098500000000	0.00000000000000	-0.06876500000000	0.00000000000000	-9.61748800000000	0.00000000000000	0.00000000000000	-9.25331700000000	0.00000000000000	
